<?xml version="1.0" standalone="no"?>
<!DOCTYPE svg PUBLIC "-//W3C//DTD SVG 1.1//EN" "http://www.w3.org/Graphics/SVG/1.1/DTD/svg11.dtd" >
<svg xmlns="http://www.w3.org/2000/svg">
<metadata>Generated by IcoMoon</metadata>
<defs>
<font id="icomoon" horiz-adv-x="1024">
<font-face units-per-em="1024" ascent="960" descent="-64" />
<missing-glyph horiz-adv-x="1024" />
<glyph unicode="&#x20;" d="" horiz-adv-x="512" />
<glyph unicode="&#xe114;" d="M512 887.467q17.667 0 30.167-12.5t12.5-30.167v-341.333h341.333q17.667 0 30.167-12.5t12.5-30.167-12.5-30.167-30.167-12.5h-341.333v-341.333q0-17.667-12.5-30.167t-30.167-12.5-30.167 12.5-12.5 30.167v341.333h-341.333q-17.667 0-30.167 12.5t-12.5 30.167 12.5 30.167 30.167 12.5h341.333v341.333q0 17.667 12.5 30.167t30.167 12.5z" />
<glyph unicode="&#xe115;" d="M128 503.467h768q17.667 0 30.167-12.5t12.5-30.167-12.5-30.167-30.167-12.5h-768q-17.667 0-30.167 12.5t-12.5 30.167 12.5 30.167 30.167 12.5z" />
<glyph unicode="&#xe116;" d="M896 759.467q18.333 0 30.5-12.167t12.167-30.5q0-18-12.333-30.333l-512-512q-12.333-12.333-30.333-12.333t-30.333 12.333l-256 256q-12.333 12.333-12.333 30.333 0 18.333 12.167 30.5t30.5 12.167q18 0 30.333-12.333l225.667-226 481.667 482q12.333 12.333 30.333 12.333z" />
<glyph unicode="&#xe117;" d="M810.667 802.133q18.333 0 30.5-12.167t12.167-30.5q0-18-12.333-30.333l-268.667-268.333 268.667-268.333q12.333-12.333 12.333-30.333 0-18.333-12.167-30.5t-30.5-12.167q-18 0-30.333 12.333l-268.333 268.667-268.333-268.667q-12.333-12.333-30.333-12.333-18.333 0-30.5 12.167t-12.167 30.5q0 18 12.333 30.333l268.667 268.333-268.667 268.333q-12.333 12.333-12.333 30.333 0 18.333 12.167 30.5t30.5 12.167q18 0 30.333-12.333l268.333-268.667 268.333 268.667q12.333 12.333 30.333 12.333z" />
<glyph unicode="&#xe600;" d="M68.357 760.258h887.285v-110.912h-887.285v110.912zM68.357 516.256h887.285v-110.912h-887.285v110.912zM68.357 272.252h887.285v-110.912h-887.285v110.912z" />
<glyph unicode="&#xe601;" d="M154.511 366.58c0-37.854-30.678-68.561-68.561-68.561v0c-37.854 0-68.53 30.699-68.53 68.561v188.44c0 37.88 30.678 68.561 68.53 68.561v0c37.88 0 68.561-30.678 68.561-68.561v-188.44zM1006.577 366.58c0-37.854-30.699-68.561-68.576-68.561v0c-37.829 0-68.508 30.699-68.508 68.561v188.44c0 37.88 30.678 68.561 68.508 68.561v0c37.88 0 68.576-30.678 68.576-68.561v-188.44zM351.944 196.852c0-43.519-35.258-78.809-78.809-78.809v0c-43.548 0-78.858 35.285-78.858 78.809v527.893c0 43.519 35.309 78.809 78.858 78.809v0c43.548 0 78.809-35.285 78.809-78.809v-527.893zM669.311 724.748c0 43.519 35.309 78.809 78.809 78.809v0c43.548 0 78.809-35.285 78.809-78.809v-527.893c0-43.519-35.258-78.809-78.809-78.809v0c-43.496 0-78.809 35.285-78.809 78.809v527.893zM394.478 497.167h232.264v-72.762h-232.264v72.762z" />
<glyph unicode="&#xe602;" d="M511.986 950.904c-270.658 0-490.069-219.415-490.069-490.129 0-270.629 219.415-490.043 490.069-490.043 270.713 0 490.129 219.415 490.129 490.043 0 270.713-219.415 490.129-490.129 490.129zM675.36 297.44h-326.713v108.867h326.713v-108.867zM675.36 515.235h-326.713v108.922h326.713v-108.922z" />
<glyph unicode="&#xe603;" d="M159.063 186.309l627.4 627.4 78.44-78.44-627.4-627.4-78.44 78.44zM237.516 813.723l627.4-627.4-78.44-78.44-627.4 627.4 78.44 78.44z" />
<glyph unicode="&#xe604;" d="M694.291 586.101h-122.767v80.539c0 30.321 19.985 37.348 34.146 37.348 14.117 0 86.685 0 86.685 0v133.080l-119.457 0.452c-132.587 0-162.779-99.257-162.779-162.779v-88.645h-76.652v-137.186h76.719c0-175.954 0-388.026 0-388.026h161.34c0 0 0 214.222 0 388.026h108.692l14.076 137.186z" />
<glyph unicode="&#xe605;" d="M815.841 591.078c-140.91 118.842-278.935 22.697-303.791 3.436-24.907 19.264-162.935 115.405-303.895-3.436-155.624-131.265 58.577-645.773 195.401-595.129 19.526 7.173 66.583 47.369 108.518 85.453 41.884-38.085 88.863-78.279 108.465-85.453 136.727-50.644 350.976 463.864 195.299 595.129zM524.454 684.62c0 0 35.671 104.54-10.215 162.749-45.806 58.159-182.428 81.763-182.428 81.763s-9.023-138.312 36.87-196.523c45.86-58.181 155.783-47.996 155.783-47.996z" />
<glyph unicode="&#xe606;" d="M786.584 883.826h-523.574c-90.909 0-164.933-73.977-164.933-164.887v-523.697c0-91.006 74.023-164.982 164.933-164.982h523.55c91.052 0 165.030 73.955 165.030 164.982v523.719c0.014 90.884-74.001 164.864-165.011 164.864zM833.895 785.426l18.861 0.097v-144.662l-144.145-0.39-0.514 144.585 125.798 0.365zM403.013 544.635c27.303 37.916 71.659 62.68 121.795 62.68 50.189 0 94.471-24.788 121.777-62.68 17.786-24.741 28.498-54.899 28.498-87.542 0-82.835-67.391-150.175-150.274-150.175-82.81 0-150.225 67.338-150.225 150.175 0 32.698 10.616 62.852 28.426 87.542zM868.347 195.267c0-45.138-36.647-81.732-81.789-81.732h-523.55c-45.090 0-81.858 36.696-81.858 81.732v349.367h127.581c-10.956-26.962-17.201-56.556-17.201-87.542 0-128.632 104.745-233.276 233.3-233.276 128.726 0 233.325 104.646 233.325 233.276 0 30.986-6.147 60.558-17.152 87.542h127.385v-349.367z" />
<glyph unicode="&#xe607;" d="M511.955 462.583l429.783 227.446v55.021h-859.468v-55.021zM511.955 380.090l-429.689 227.471v-431.006h859.468v431.006z" />
<glyph unicode="&#xe608;" d="M512 931.138c-129.343 0-323.372-58.755-323.372-293.927 0-117.572 258.72-529.175 323.372-646.723 64.686 117.538 323.347 529.152 323.347 646.723 0 235.137-193.973 293.927-323.347 293.927zM512 534.265c-56.795 0-102.888 46.040-102.888 102.916 0 56.761 46.099 102.888 102.888 102.888 56.818 0 102.916-46.123 102.916-102.888 0-56.873-46.099-102.916-102.916-102.916z" />
<glyph unicode="&#xe609;" d="M397.062 506.87l9.312 10.501c135.398 11.65 183.235 43.182 183.235 93.356v1.167c0 39.676-31.509 64.19-87.509 64.19-54.831 0-115.54-27.999-170.391-77.029l-116.678 154.012c71.158 71.237 168.026 122.581 302.223 122.581 171.535 0 291.727-93.385 291.727-245.084v-2.315c0-147.045-97.989-210.037-227.512-241.576l-14.014-74.666h-141.221l-29.169 194.857zM378.397 244.341h229.877v-198.391h-229.877v198.391z" />
<glyph unicode="&#xe60a;" d="M891.802 660.019c13.926 13.722 36.301 13.722 50.125 0s13.875-35.891 0-49.613l-404.89-400.896c-13.824-13.722-36.198-13.722-50.125 0l-404.89 400.896c-13.824 13.722-13.824 35.891 0 49.613 13.875 13.722 36.301 13.722 50.125 0l379.853-365.619 379.802 365.619z" />
<glyph unicode="&#xe60b;" d="M711.219 80.998c13.722-13.926 13.722-36.301 0-50.125s-35.891-13.875-49.613 0l-400.896 404.89c-13.722 13.824-13.722 36.198 0 50.125l400.896 404.89c13.722 13.824 35.891 13.824 49.613 0 13.722-13.875 13.722-36.301 0-50.125l-365.619-379.853 365.619-379.802z" />
<glyph unicode="&#xe60c;" d="M678.4 460.8l-365.619 379.904c-13.722 13.824-13.722 36.198 0 50.125 13.722 13.824 35.891 13.824 49.613 0l400.896-404.89c13.722-13.875 13.722-36.301 0-50.125l-400.896-404.89c-13.722-13.875-35.891-13.824-49.613 0-13.722 13.773-13.722 36.198 0 50.125l365.619 379.75z" />
<glyph unicode="&#xe60d;" d="M132.198 261.581c-13.926-13.722-36.301-13.722-50.125 0s-13.875 35.891 0 49.613l404.89 400.896c13.824 13.722 36.198 13.722 50.125 0l404.89-400.896c13.824-13.722 13.824-35.891 0-49.613-13.875-13.722-36.301-13.722-50.074 0l-379.904 365.619-379.802-365.619z" />
<glyph unicode="&#xe60e;" d="M970.349 724.724c-32.962-14.597-68.41-24.489-105.541-28.906 37.932 22.716 67.060 58.738 80.722 101.638-35.447-21.049-74.733-36.402-116.612-44.675-33.427 35.692-81.211 58.050-133.935 58.050-101.575 0-183.846-82.274-183.846-183.624 0-14.395 1.664-28.439 4.813-41.881-152.568 7.675-288.012 80.833-378.606 191.962-15.749-27.15-24.887-58.717-24.887-92.365 0-63.752 32.408-119.915 81.763-152.968-30.189 0.997-58.362 9.249-83.271 23.003 0-0.777 0-1.532 0-2.309 0-88.995 63.419-163.326 147.424-180.097-15.331-4.234-31.61-6.457-48.468-6.457-11.692 0-23.266 1.267-34.493 3.283 23.401-73.002 91.125-126.084 171.47-127.55-62.797-49.179-142.011-78.636-228.12-78.636-14.706 0-29.48 0.865-43.788 2.595 81.211-52.173 177.967-82.583 281.625-82.583 337.787 0 522.636 279.959 522.636 522.657 0 7.875-0.243 15.862-0.576 23.735 36.021 25.932 67.012 58.296 91.702 95.118z" />
<glyph unicode="&#xe60f;" d="M866.491 813.076c0 0-94.697 5.856-354.515 5.856s-354.446-5.856-354.446-5.856c-83.516 0-151.148-67.722-151.148-151.237v-405.427c0-83.561 67.655-151.237 151.148-151.237 0 0 111.708-2.465 354.446-2.465 242.695 0 354.537 2.465 354.537 2.465 83.516 0 151.148 67.698 151.148 151.237v405.4c0 83.538-67.655 151.258-151.171 151.258zM440.728 327.373v302.168l229.117-151.083-229.117-151.083z" />
</font>
</defs>
</svg>
